<?xml version="1.0" encoding="utf-8"?>
<!-- Generator: Adobe Illustrator 24.1.2, SVG Export Plug-In . SVG Version: 6.00 Build 0)  -->
<svg version="1.1" id="Layer_1" xmlns="http://www.w3.org/2000/svg" xmlns:xlink="http://www.w3.org/1999/xlink" x="0px" y="0px"
	 viewBox="0 0 80 80" style="enable-background:new 0 0 80 80;" xml:space="preserve">
<style type="text/css">
	.st0{fill:#900707;}
</style>
<path d="M76.5,58.8c-0.6-15.4-1.3-35.1-1.9-51.1c-13.2,0-28.1,0-41.2,0c0-2.9,0-5.1,0-7.6C48.1,0,64.9,0,80,0
	c-0.9,18.4-1.8,40.8-2.7,58.8C77.1,58.8,76.8,58.8,76.5,58.8z"/>
<path class="st0" d="M0,80c0.9-18.4,1.8-40.8,2.7-58.9c0.3,0,0.5,0,0.8,0c0.6,15.5,1.3,35.4,1.9,51.5c13.2,0,27.1,0,40.2,0
	c0,2.8,0,4.9,0,7.4C30.8,80,15.2,80,0,80z"/>
<path class="st0" d="M12.7,13.1c0.6,14.7,1.2,33.8,1.8,49.2c9.9,0,20.6,0,30.5,0c0,2.3,0,3.9,0,5.9c-11.3,0-23.3,0-34.9,0
	c0.6-17,1.2-38.3,1.8-55.1C12.2,13.1,12.5,13.1,12.7,13.1z"/>
<path d="M69.9,12.1c-0.6,17.1-1.2,38.3-1.9,55.2c-0.2,0-0.5,0-0.7,0c-0.6-14.8-1.2-34.1-1.8-49.5c-9.9,0-21.7,0-31.6,0
	c0-2.2,0-3.9,0-5.8C45.1,12.1,58.3,12.1,69.9,12.1z"/>
<path d="M57.5,27.3c-7.3,0-16.4,0-23.6,0c0-2,0-3.4,0-5.2c8.4,0,18.8,0,27.6,0c-0.6,16.2-1.2,36.5-1.8,52.4c-0.2,0-0.5,0-0.7,0
	C58.4,60.5,58,42.1,57.5,27.3z"/>
<path class="st0" d="M22.5,53c7.3,0,15.3,0,22.5,0c0,1.8,0,3.2,0,4.9c-8.4,0-17.7,0-26.3,0c0.6-16.2,1.2-36.5,1.7-52.5
	c0.2,0,0.5,0,0.7,0C21.5,19.6,22,38.2,22.5,53z"/>
<path class="st0" d="M28.9,0.3c0.4,13,0.7,30.4,1.1,43.9c4.8,0,10.5,0,15.3,0c0.1,1.6,0.2,2.6,0.3,4.1c-5.9,0-12.6,0-18.7,0
	c0.4-14.7,0.9-33.5,1.3-47.9C28.4,0.4,28.7,0.3,28.9,0.3z"/>
<path d="M51.1,80.1c-0.4-13-0.8-30.5-1.2-44.1c-4.8,0-11.6,0-16.3,0c0-1.7,0-2.8,0-4.2c5.6,0,13.4,0,19.6,0
	c-0.4,14.7-0.9,33.7-1.3,48.3C51.6,80.1,51.3,80.1,51.1,80.1z"/>
</svg>
